<svg width="232" height="51" viewBox="0 0 232 51" fill="none" xmlns="http://www.w3.org/2000/svg">
<path d="M3.07 42.3V40.3H1.07V42.3H3.07ZM12.8 42.3V44.3H14.8V42.3H12.8ZM12.8 14.65L10.847 14.2192L10.8 14.432V14.65H12.8ZM13.85 9.89L15.803 10.3208L12.2986 8.62782L13.85 9.89ZM10.49 14.02L11.6207 15.6697L11.8591 15.5063L12.0414 15.2822L10.49 14.02ZM4.26 18.29L2.64719 19.4727L3.79279 21.0349L5.3907 19.9397L4.26 18.29ZM0.41 13.04L-0.846039 11.4836L-2.33206 12.6828L-1.20281 14.2227L0.41 13.04ZM16.37 0.159999V-1.84H15.6636L15.114 -1.3964L16.37 0.159999ZM21.48 0.159999H23.48V-1.84H21.48V0.159999ZM21.48 42.3H19.48V44.3H21.48V42.3ZM31 42.3H33V40.3H31V42.3ZM31 50V52H33V50H31ZM3.07 50H1.07V52H3.07V50ZM3.07 44.3H12.8V40.3H3.07V44.3ZM14.8 42.3V14.65H10.8V42.3H14.8ZM14.753 15.0808L15.803 10.3208L11.897 9.45918L10.847 14.2192L14.753 15.0808ZM12.2986 8.62782L8.93858 12.7578L12.0414 15.2822L15.4014 11.1522L12.2986 8.62782ZM9.35931 12.3703L3.1293 16.6403L5.3907 19.9397L11.6207 15.6697L9.35931 12.3703ZM5.87281 17.1073L2.02281 11.8573L-1.20281 14.2227L2.64719 19.4727L5.87281 17.1073ZM1.66604 14.5964L17.626 1.71639L15.114 -1.3964L-0.846039 11.4836L1.66604 14.5964ZM16.37 2.16H21.48V-1.84H16.37V2.16ZM19.48 0.159999V42.3H23.48V0.159999H19.48ZM21.48 44.3H31V40.3H21.48V44.3ZM29 42.3V50H33V42.3H29ZM31 48H3.07V52H31V48ZM5.07 50V42.3H1.07V50H5.07ZM70.4319 6.32L72.0643 7.47554L72.0703 7.46692L70.4319 6.32ZM96.0519 6.25L94.3849 7.35509L94.3907 7.36375L96.0519 6.25ZM95.7019 44.68L94.072 43.521L94.0677 43.527L94.0634 43.5331L95.7019 44.68ZM70.1519 44.4L68.4529 45.4552L68.4579 45.4632L70.1519 44.4ZM76.9419 38.66L75.0773 39.3835L75.0839 39.4005L75.0908 39.4173L76.9419 38.66ZM89.1219 39.01L87.3042 38.1757L87.2985 38.188L87.293 38.2005L89.1219 39.01ZM89.2619 12.34L87.4011 13.073L89.2619 12.34ZM76.9419 12.06L75.1082 11.2615L75.1028 11.274L75.0975 11.2865L76.9419 12.06ZM68.0219 25.43C68.0219 17.0013 69.4778 11.1294 72.0643 7.47552L68.7995 5.16447C65.5059 9.81725 64.0219 16.6853 64.0219 25.43H68.0219ZM72.0703 7.46692C74.6046 3.84657 78.1909 2.02 83.1019 2.02V-1.98C76.9995 -1.98 72.1392 0.393429 68.7934 5.17307L72.0703 7.46692ZM83.1019 2.02C88.4509 2.02 92.0731 3.86773 94.3849 7.35507L97.7189 5.14493C94.524 0.325595 89.5129 -1.98 83.1019 -1.98V2.02ZM94.3907 7.36375C96.8118 10.9749 98.1819 16.8832 98.1819 25.43H102.182C102.182 16.6168 100.799 9.73846 97.7131 5.13625L94.3907 7.36375ZM98.1819 25.43C98.1819 33.9011 96.704 39.8197 94.072 43.521L97.3318 45.839C100.673 41.1403 102.182 34.2255 102.182 25.43H98.1819ZM94.0634 43.5331C91.5292 47.1534 87.9428 48.98 83.0319 48.98V52.98C89.1343 52.98 93.9946 50.6066 97.3403 45.8269L94.0634 43.5331ZM83.0319 48.98C77.7838 48.98 74.1817 47.0583 71.8458 43.3368L68.4579 45.4632C71.6287 50.515 76.6133 52.98 83.0319 52.98V48.98ZM71.8509 43.3448C69.3768 39.3611 68.0219 33.466 68.0219 25.43H64.0219C64.0219 33.8206 65.4203 40.5722 68.4529 45.4552L71.8509 43.3448ZM73.1219 25.43C73.1219 31.2227 73.7331 35.9197 75.0773 39.3835L78.8064 37.9365C77.7239 35.147 77.1219 31.024 77.1219 25.43H73.1219ZM75.0908 39.4173C75.8179 41.1947 76.8372 42.6828 78.2269 43.725C79.6375 44.783 81.2955 45.28 83.1019 45.28V41.28C82.0616 41.28 81.2696 41.007 80.6269 40.525C79.9632 40.0272 79.3258 39.2053 78.793 37.9027L75.0908 39.4173ZM83.1019 45.28C84.8416 45.28 86.4477 44.8235 87.829 43.8438C89.1946 42.8752 90.2131 41.486 90.9507 39.8195L87.293 38.2005C86.7707 39.3807 86.1558 40.1265 85.5148 40.5812C84.8894 41.0248 84.1155 41.28 83.1019 41.28V45.28ZM90.9395 39.8443C92.4346 36.5872 93.0819 31.6966 93.0819 25.43H89.0819C89.0819 31.5768 88.4225 35.7395 87.3042 38.1757L90.9395 39.8443ZM93.0819 25.43C93.0819 19.6842 92.4708 15.029 91.1227 11.6069L87.4011 13.073C88.4796 15.811 89.0819 19.8825 89.0819 25.43H93.0819ZM91.1227 11.6069C90.4169 9.81527 89.398 8.31586 87.9857 7.26852C86.5565 6.20864 84.8695 5.72 83.0319 5.72V9.72C84.1343 9.72 84.9556 10.0014 85.6031 10.4815C86.2674 10.9741 86.8935 11.7847 87.4011 13.073L91.1227 11.6069ZM83.0319 5.72C81.2693 5.72 79.6436 6.18216 78.2487 7.17627C76.8692 8.15934 75.845 9.56951 75.1082 11.2615L78.7756 12.8585C79.2987 11.6571 79.9196 10.8973 80.5701 10.4337C81.2051 9.98117 81.9945 9.72 83.0319 9.72V5.72ZM75.0975 11.2865C73.7254 14.5584 73.1219 19.3434 73.1219 25.43H77.1219C77.1219 19.4766 77.7317 15.3482 78.7863 12.8334L75.0975 11.2865ZM115.049 6.32L116.681 7.47554L116.687 7.46692L115.049 6.32ZM140.669 6.25L139.002 7.35509L139.007 7.36375L140.669 6.25ZM140.319 44.68L138.689 43.521L138.684 43.527L138.68 43.5331L140.319 44.68ZM114.769 44.4L113.07 45.4552L113.075 45.4632L114.769 44.4ZM121.559 38.66L119.694 39.3835L119.701 39.4005L119.708 39.4173L121.559 38.66ZM133.739 39.01L131.921 38.1757L131.915 38.188L131.91 38.2005L133.739 39.01ZM133.879 12.34L132.018 13.073L133.879 12.34ZM121.559 12.06L119.725 11.2615L119.72 11.274L119.714 11.2865L121.559 12.06ZM112.639 25.43C112.639 17.0013 114.095 11.1294 116.681 7.47552L113.416 5.16447C110.123 9.81725 108.639 16.6853 108.639 25.43H112.639ZM116.687 7.46692C119.221 3.84657 122.808 2.02 127.719 2.02V-1.98C121.616 -1.98 116.756 0.393429 113.41 5.17307L116.687 7.46692ZM127.719 2.02C133.068 2.02 136.69 3.86773 139.002 7.35507L142.336 5.14493C139.141 0.325595 134.13 -1.98 127.719 -1.98V2.02ZM139.007 7.36375C141.429 10.9749 142.799 16.8832 142.799 25.43H146.799C146.799 16.6168 145.415 9.73846 142.33 5.13625L139.007 7.36375ZM142.799 25.43C142.799 33.9011 141.321 39.8197 138.689 43.521L141.949 45.839C145.29 41.1403 146.799 34.2255 146.799 25.43H142.799ZM138.68 43.5331C136.146 47.1534 132.56 48.98 127.649 48.98V52.98C133.751 52.98 138.611 50.6066 141.957 45.8269L138.68 43.5331ZM127.649 48.98C122.401 48.98 118.798 47.0583 116.463 43.3368L113.075 45.4632C116.246 50.515 121.23 52.98 127.649 52.98V48.98ZM116.468 43.3448C113.994 39.3611 112.639 33.466 112.639 25.43H108.639C108.639 33.8206 110.037 40.5722 113.07 45.4552L116.468 43.3448ZM117.739 25.43C117.739 31.2227 118.35 35.9197 119.694 39.3835L123.423 37.9365C122.341 35.147 121.739 31.024 121.739 25.43H117.739ZM119.708 39.4173C120.435 41.1947 121.454 42.6828 122.844 43.725C124.254 44.783 125.912 45.28 127.719 45.28V41.28C126.678 41.28 125.886 41.007 125.244 40.525C124.58 40.0272 123.943 39.2053 123.41 37.9027L119.708 39.4173ZM127.719 45.28C129.458 45.28 131.065 44.8235 132.446 43.8438C133.811 42.8752 134.83 41.486 135.568 39.8195L131.91 38.2005C131.387 39.3807 130.773 40.1265 130.132 40.5812C129.506 41.0248 128.732 41.28 127.719 41.28V45.28ZM135.556 39.8443C137.051 36.5872 137.699 31.6966 137.699 25.43H133.699C133.699 31.5768 133.039 35.7395 131.921 38.1757L135.556 39.8443ZM137.699 25.43C137.699 19.6842 137.088 15.029 135.739 11.6069L132.018 13.073C133.096 15.811 133.699 19.8825 133.699 25.43H137.699ZM135.739 11.6069C135.034 9.81527 134.015 8.31586 132.602 7.26852C131.173 6.20864 129.486 5.72 127.649 5.72V9.72C128.751 9.72 129.572 10.0014 130.22 10.4815C130.884 10.9741 131.51 11.7847 132.018 13.073L135.739 11.6069ZM127.649 5.72C125.886 5.72 124.26 6.18216 122.865 7.17627C121.486 8.15934 120.462 9.56951 119.725 11.2615L123.392 12.8585C123.916 11.6571 124.536 10.8973 125.187 10.4337C125.822 9.98117 126.611 9.72 127.649 9.72V5.72ZM119.714 11.2865C118.342 14.5584 117.739 19.3434 117.739 25.43H121.739C121.739 19.4766 122.348 15.3482 123.403 12.8334L119.714 11.2865ZM159.665 6.32L161.298 7.47554L161.304 7.46692L159.665 6.32ZM185.285 6.25L183.618 7.35509L183.624 7.36375L185.285 6.25ZM184.935 44.68L183.306 43.521L183.301 43.527L183.297 43.5331L184.935 44.68ZM159.385 44.4L157.686 45.4552L157.692 45.4632L159.385 44.4ZM166.175 38.66L164.311 39.3835L164.318 39.4005L164.324 39.4173L166.175 38.66ZM178.355 39.01L176.538 38.1757L176.532 38.188L176.527 38.2005L178.355 39.01ZM178.495 12.34L176.635 13.073L178.495 12.34ZM166.175 12.06L164.342 11.2615L164.336 11.274L164.331 11.2865L166.175 12.06ZM157.255 25.43C157.255 17.0013 158.711 11.1294 161.298 7.47552L158.033 5.16447C154.74 9.81725 153.255 16.6853 153.255 25.43H157.255ZM161.304 7.46692C163.838 3.84657 167.425 2.02 172.335 2.02V-1.98C166.233 -1.98 161.373 0.393429 158.027 5.17307L161.304 7.46692ZM172.335 2.02C177.684 2.02 181.307 3.86773 183.618 7.35507L186.952 5.14493C183.758 0.325595 178.746 -1.98 172.335 -1.98V2.02ZM183.624 7.36375C186.045 10.9749 187.415 16.8832 187.415 25.43H191.415C191.415 16.6168 190.032 9.73846 186.947 5.13625L183.624 7.36375ZM187.415 25.43C187.415 33.9011 185.938 39.8197 183.306 43.521L186.565 45.839C189.907 41.1403 191.415 34.2255 191.415 25.43H187.415ZM183.297 43.5331C180.763 47.1534 177.176 48.98 172.265 48.98V52.98C178.368 52.98 183.228 50.6066 186.574 45.8269L183.297 43.5331ZM172.265 48.98C167.017 48.98 163.415 47.0583 161.079 43.3368L157.692 45.4632C160.862 50.515 165.847 52.98 172.265 52.98V48.98ZM161.084 43.3448C158.61 39.3611 157.255 33.466 157.255 25.43H153.255C153.255 33.8206 154.654 40.5722 157.686 45.4552L161.084 43.3448ZM162.355 25.43C162.355 31.2227 162.967 35.9197 164.311 39.3835L168.04 37.9365C166.958 35.147 166.355 31.024 166.355 25.43H162.355ZM164.324 39.4173C165.052 41.1947 166.071 42.6828 167.46 43.725C168.871 44.783 170.529 45.28 172.335 45.28V41.28C171.295 41.28 170.503 41.007 169.86 40.525C169.197 40.0272 168.559 39.2053 168.027 37.9027L164.324 39.4173ZM172.335 45.28C174.075 45.28 175.681 44.8235 177.063 43.8438C178.428 42.8752 179.447 41.486 180.184 39.8195L176.527 38.2005C176.004 39.3807 175.389 40.1265 174.748 40.5812C174.123 41.0248 173.349 41.28 172.335 41.28V45.28ZM180.173 39.8443C181.668 36.5872 182.315 31.6966 182.315 25.43H178.315C178.315 31.5768 177.656 35.7395 176.538 38.1757L180.173 39.8443ZM182.315 25.43C182.315 19.6842 181.704 15.029 180.356 11.6069L176.635 13.073C177.713 15.811 178.315 19.8825 178.315 25.43H182.315ZM180.356 11.6069C179.65 9.81527 178.632 8.31586 177.219 7.26852C175.79 6.20864 174.103 5.72 172.265 5.72V9.72C173.368 9.72 174.189 10.0014 174.837 10.4815C175.501 10.9741 176.127 11.7847 176.635 13.073L180.356 11.6069ZM172.265 5.72C170.503 5.72 168.877 6.18216 167.482 7.17627C166.103 8.15934 165.079 9.56951 164.342 11.2615L168.009 12.8585C168.532 11.6571 169.153 10.8973 169.804 10.4337C170.439 9.98117 171.228 9.72 172.265 9.72V5.72ZM164.331 11.2865C162.959 14.5584 162.355 19.3434 162.355 25.43H166.355C166.355 19.4766 166.965 15.3482 168.02 12.8334L164.331 11.2865ZM200.082 22.42V20.42H198.082V22.42H200.082ZM211.422 22.42V24.42H213.422V22.42H211.422ZM211.422 10.59V8.59H209.422V10.59H211.422ZM219.612 10.59H221.612V8.59H219.612V10.59ZM219.612 22.42H217.612V24.42H219.612V22.42ZM231.022 22.42H233.022V20.42H231.022V22.42ZM231.022 30.26V32.26H233.022V30.26H231.022ZM219.612 30.26V28.26H217.612V30.26H219.612ZM219.612 42.23V44.23H221.612V42.23H219.612ZM211.422 42.23H209.422V44.23H211.422V42.23ZM211.422 30.26H213.422V28.26H211.422V30.26ZM200.082 30.26H198.082V32.26H200.082V30.26ZM200.082 24.42H211.422V20.42H200.082V24.42ZM213.422 22.42V10.59H209.422V22.42H213.422ZM211.422 12.59H219.612V8.59H211.422V12.59ZM217.612 10.59V22.42H221.612V10.59H217.612ZM219.612 24.42H231.022V20.42H219.612V24.42ZM229.022 22.42V30.26H233.022V22.42H229.022ZM231.022 28.26H219.612V32.26H231.022V28.26ZM217.612 30.26V42.23H221.612V30.26H217.612ZM219.612 40.23H211.422V44.23H219.612V40.23ZM213.422 42.23V30.26H209.422V42.23H213.422ZM211.422 28.26H200.082V32.26H211.422V28.26ZM202.082 30.26V22.42H198.082V30.26H202.082Z" fill="white"/>
</svg>
