<svg width="120" height="51" viewBox="0 0 120 51" fill="none" xmlns="http://www.w3.org/2000/svg">
<path d="M27.92 20.18L26.0415 19.4936L26.0356 19.5096L26.03 19.5258L27.92 20.18ZM24.63 27.32L22.8999 26.3166L22.8924 26.3296L22.885 26.3428L24.63 27.32ZM20.22 34.11L18.6159 32.9155L18.6116 32.9212L20.22 34.11ZM15.53 40.06L16.7537 41.6419L16.9206 41.5129L17.0568 41.3519L15.53 40.06ZM11.82 42.93L10.5963 41.3481L9.82 41.9486V42.93H11.82ZM11.82 43.28H9.82V45.7063L12.2017 45.2432L11.82 43.28ZM16.86 42.3V40.3H16.6674L16.4783 40.3368L16.86 42.3ZM30.3 42.3H32.3V40.3H30.3V42.3ZM30.3 50V52H32.3V50H30.3ZM0.83 50H-1.17V52H0.83V50ZM0.83 45.31L-0.612775 43.9249L-1.17 44.5054V45.31H0.83ZM4.61 41.25L6.08988 42.5953L6.09986 42.5844L6.10968 42.5732L4.61 41.25ZM8.81 36.28L7.26026 35.0157L7.25649 35.0204L8.81 36.28ZM13.01 30.82L11.3908 29.6461L13.01 30.82ZM16.65 25.22L18.3838 26.2169L18.3891 26.2078L18.3943 26.1985L16.65 25.22ZM19.17 19.69L17.2933 18.9986L17.2852 19.0205L17.2777 19.0426L19.17 19.69ZM18.47 9.96L16.9475 11.2569L16.9734 11.2873L17.0004 11.3166L18.47 9.96ZM8.67 9.05L9.40305 10.9108L9.41732 10.9052L9.4315 10.8994L8.67 9.05ZM4.75 11.43L3.00887 12.4141L4.24434 14.5999L6.09854 12.907L4.75 11.43ZM1.11 4.99L-0.158633 3.44385L-1.45846 4.51037L-0.631125 5.97411L1.11 4.99ZM7.27 1.42L7.99306 3.28472L8.00294 3.28089L8.01278 3.27695L7.27 1.42ZM20.99 0.859998L20.3575 2.75736L20.3575 2.75737L20.99 0.859998ZM25.33 3.31L26.6551 1.812V1.812L25.33 3.31ZM28.2 7.37L26.3617 8.15784L26.3659 8.16758L26.3702 8.17728L28.2 7.37ZM27.25 12.97C27.25 15.0966 26.8547 17.268 26.0415 19.4936L29.7985 20.8664C30.7587 18.2386 31.25 15.6034 31.25 12.97H27.25ZM26.03 19.5258C25.2341 21.8252 24.1921 24.0887 22.8999 26.3166L26.3601 28.3234C27.7746 25.8847 28.9259 23.3881 29.81 20.8342L26.03 19.5258ZM22.885 26.3428C21.6215 28.599 20.1988 30.7899 18.6159 32.9155L21.8241 35.3045C23.5079 33.0434 25.0252 30.7076 26.375 28.2972L22.885 26.3428ZM18.6116 32.9212C17.048 35.0367 15.5118 36.9853 14.0032 38.7681L17.0568 41.3519C18.6282 39.4947 20.2187 37.4766 21.8284 35.2988L18.6116 32.9212ZM14.3063 38.4781L10.5963 41.3481L13.0437 44.5119L16.7537 41.6419L14.3063 38.4781ZM9.82 42.93V43.28H13.82V42.93H9.82ZM12.2017 45.2432L17.2417 44.2632L16.4783 40.3368L11.4383 41.3168L12.2017 45.2432ZM16.86 44.3H30.3V40.3H16.86V44.3ZM28.3 42.3V50H32.3V42.3H28.3ZM30.3 48H0.83V52H30.3V48ZM2.83 50V45.31H-1.17V50H2.83ZM2.27278 46.6951C3.40827 45.5123 4.68094 44.1452 6.08988 42.5953L3.13012 39.9047C1.73906 41.4348 0.491726 42.7744 -0.612775 43.9249L2.27278 46.6951ZM6.10968 42.5732C7.52896 40.9647 8.94688 39.2868 10.3635 37.5396L7.25649 35.0204C5.87312 36.7266 4.49104 38.3619 3.11032 39.9268L6.10968 42.5732ZM10.3597 37.5443C11.8306 35.7413 13.2538 33.8911 14.6292 31.9939L11.3908 29.6461C10.0596 31.4822 8.68274 33.2721 7.26027 35.0157L10.3597 37.5443ZM14.6292 31.9939C16.021 30.0743 17.2731 28.1487 18.3838 26.2169L14.9162 24.2231C13.8803 26.0246 12.7057 27.8324 11.3908 29.6461L14.6292 31.9939ZM18.3943 26.1985C19.5172 24.1969 20.4105 22.2428 21.0623 20.3374L17.2777 19.0426C16.7162 20.6839 15.9295 22.4165 14.9057 24.2415L18.3943 26.1985ZM21.0467 20.3814C21.7664 18.4279 22.15 16.5129 22.15 14.65H18.15C18.15 15.9604 17.8803 17.4054 17.2933 18.9986L21.0467 20.3814ZM22.15 14.65C22.15 12.3192 21.4544 10.2445 19.9396 8.60344L17.0004 11.3166C17.7256 12.1022 18.15 13.1541 18.15 14.65H22.15ZM19.9925 8.66307C18.3958 6.78872 15.9914 6.07 13.29 6.07V10.07C15.3486 10.07 16.3975 10.6113 16.9475 11.2569L19.9925 8.66307ZM13.29 6.07C11.4994 6.07 9.70105 6.46253 7.9085 7.20064L9.4315 10.8994C10.8123 10.3308 12.0939 10.07 13.29 10.07V6.07ZM7.93695 7.18918C6.20128 7.87293 4.67803 8.78746 3.40146 9.95303L6.09854 12.907C6.96863 12.1125 8.05872 11.4404 9.40305 10.9108L7.93695 7.18918ZM6.49113 10.4459L2.85113 4.00589L-0.631125 5.97411L3.00887 12.4141L6.49113 10.4459ZM2.37863 6.53615C4.02804 5.18279 5.89566 4.098 7.99306 3.28472L6.54695 -0.444723C4.07101 0.515333 1.83196 1.81055 -0.158633 3.44385L2.37863 6.53615ZM8.01278 3.27695C10.0599 2.45809 12.5278 2.02 15.46 2.02V-1.98C12.1389 -1.98 9.14674 -1.48476 6.52722 -0.436953L8.01278 3.27695ZM15.46 2.02C17.2799 2.02 18.9066 2.27372 20.3575 2.75736L21.6225 -1.03737C19.7134 -1.67373 17.6534 -1.98 15.46 -1.98V2.02ZM20.3575 2.75737C21.8061 3.24021 23.0113 3.92906 24.0049 4.80799L26.6551 1.812C25.2221 0.544266 23.5339 -0.400217 21.6225 -1.03737L20.3575 2.75737ZM24.0049 4.80799C24.976 5.66708 25.7667 6.76956 26.3617 8.15784L30.0383 6.58216C29.2333 4.70377 28.1107 3.09958 26.6551 1.812L24.0049 4.80799ZM26.3702 8.17728C26.9346 9.45673 27.25 11.037 27.25 12.97H31.25C31.25 10.6096 30.8654 8.4566 30.0298 6.56272L26.3702 8.17728ZM47.8268 6.32L49.4592 7.47554L49.4653 7.46692L47.8268 6.32ZM73.4468 6.25L71.7798 7.35509L71.7856 7.36375L73.4468 6.25ZM73.0968 44.68L71.4669 43.521L71.4626 43.527L71.4583 43.5331L73.0968 44.68ZM47.5468 44.4L45.8478 45.4552L45.8528 45.4632L47.5468 44.4ZM54.3368 38.66L52.4723 39.3835L52.4788 39.4005L52.4857 39.4173L54.3368 38.66ZM66.5168 39.01L64.6991 38.1757L64.6935 38.188L64.6879 38.2005L66.5168 39.01ZM66.6568 12.34L64.796 13.073L66.6568 12.34ZM54.3368 12.06L52.5031 11.2615L52.4977 11.274L52.4924 11.2865L54.3368 12.06ZM45.4168 25.43C45.4168 17.0013 46.8727 11.1294 49.4592 7.47552L46.1944 5.16447C42.9008 9.81725 41.4168 16.6853 41.4168 25.43H45.4168ZM49.4653 7.46692C51.9995 3.84657 55.5858 2.02 60.4968 2.02V-1.98C54.3944 -1.98 49.5341 0.393429 46.1883 5.17307L49.4653 7.46692ZM60.4968 2.02C65.8458 2.02 69.468 3.86773 71.7798 7.35507L75.1138 5.14493C71.9189 0.325595 66.9078 -1.98 60.4968 -1.98V2.02ZM71.7856 7.36375C74.2067 10.9749 75.5768 16.8832 75.5768 25.43H79.5768C79.5768 16.6168 78.1936 9.73846 75.108 5.13625L71.7856 7.36375ZM75.5768 25.43C75.5768 33.9011 74.0989 39.8197 71.4669 43.521L74.7267 45.839C78.068 41.1403 79.5768 34.2255 79.5768 25.43H75.5768ZM71.4583 43.5331C68.9241 47.1534 65.3378 48.98 60.4268 48.98V52.98C66.5292 52.98 71.3895 50.6066 74.7353 45.8269L71.4583 43.5331ZM60.4268 48.98C55.1787 48.98 51.5766 47.0583 49.2408 43.3368L45.8528 45.4632C49.0236 50.515 54.0083 52.98 60.4268 52.98V48.98ZM49.2458 43.3448C46.7717 39.3611 45.4168 33.466 45.4168 25.43H41.4168C41.4168 33.8206 42.8152 40.5722 45.8478 45.4552L49.2458 43.3448ZM50.5168 25.43C50.5168 31.2227 51.1281 35.9197 52.4723 39.3835L56.2013 37.9365C55.1189 35.147 54.5168 31.024 54.5168 25.43H50.5168ZM52.4857 39.4173C53.2128 41.1947 54.2321 42.6828 55.6218 43.725C57.0324 44.783 58.6904 45.28 60.4968 45.28V41.28C59.4565 41.28 58.6645 41.007 58.0218 40.525C57.3581 40.0272 56.7208 39.2053 56.1879 37.9027L52.4857 39.4173ZM60.4968 45.28C62.2365 45.28 63.8427 44.8235 65.2239 43.8438C66.5895 42.8752 67.608 41.486 68.3457 39.8195L64.6879 38.2005C64.1656 39.3807 63.5508 40.1265 62.9097 40.5812C62.2843 41.0248 61.5104 41.28 60.4968 41.28V45.28ZM68.3345 39.8443C69.8296 36.5872 70.4768 31.6966 70.4768 25.43H66.4768C66.4768 31.5768 65.8174 35.7395 64.6991 38.1757L68.3345 39.8443ZM70.4768 25.43C70.4768 19.6842 69.8657 15.029 68.5176 11.6069L64.796 13.073C65.8746 15.811 66.4768 19.8825 66.4768 25.43H70.4768ZM68.5176 11.6069C67.8118 9.81527 66.7929 8.31586 65.3806 7.26852C63.9514 6.20864 62.2644 5.72 60.4268 5.72V9.72C61.5292 9.72 62.3505 10.0014 62.998 10.4815C63.6623 10.9741 64.2885 11.7847 64.796 13.073L68.5176 11.6069ZM60.4268 5.72C58.6642 5.72 57.0386 6.18216 55.6436 7.17627C54.2641 8.15934 53.2399 9.56951 52.5031 11.2615L56.1705 12.8585C56.6937 11.6571 57.3145 10.8973 57.965 10.4337C58.6 9.98117 59.3894 9.72 60.4268 9.72V5.72ZM52.4924 11.2865C51.1203 14.5584 50.5168 19.3434 50.5168 25.43H54.5168C54.5168 19.4766 55.1266 15.3482 56.1812 12.8334L52.4924 11.2865ZM88.2436 22.42V20.42H86.2436V22.42H88.2436ZM99.5836 22.42V24.42H101.584V22.42H99.5836ZM99.5836 10.59V8.59H97.5836V10.59H99.5836ZM107.774 10.59H109.774V8.59H107.774V10.59ZM107.774 22.42H105.774V24.42H107.774V22.42ZM119.184 22.42H121.184V20.42H119.184V22.42ZM119.184 30.26V32.26H121.184V30.26H119.184ZM107.774 30.26V28.26H105.774V30.26H107.774ZM107.774 42.23V44.23H109.774V42.23H107.774ZM99.5836 42.23H97.5836V44.23H99.5836V42.23ZM99.5836 30.26H101.584V28.26H99.5836V30.26ZM88.2436 30.26H86.2436V32.26H88.2436V30.26ZM88.2436 24.42H99.5836V20.42H88.2436V24.42ZM101.584 22.42V10.59H97.5836V22.42H101.584ZM99.5836 12.59H107.774V8.59H99.5836V12.59ZM105.774 10.59V22.42H109.774V10.59H105.774ZM107.774 24.42H119.184V20.42H107.774V24.42ZM117.184 22.42V30.26H121.184V22.42H117.184ZM119.184 28.26H107.774V32.26H119.184V28.26ZM105.774 30.26V42.23H109.774V30.26H105.774ZM107.774 40.23H99.5836V44.23H107.774V40.23ZM101.584 42.23V30.26H97.5836V42.23H101.584ZM99.5836 28.26H88.2436V32.26H99.5836V28.26ZM90.2436 30.26V22.42H86.2436V30.26H90.2436Z" fill="white"/>
</svg>
