<svg width="78" height="51" viewBox="0 0 78 51" fill="none" xmlns="http://www.w3.org/2000/svg">
<path d="M27.5955 20.18L25.717 19.4936L25.7111 19.5096L25.7055 19.5258L27.5955 20.18ZM24.3055 27.32L22.5754 26.3166L22.5679 26.3296L22.5605 26.3428L24.3055 27.32ZM19.8955 34.11L18.2914 32.9155L18.2872 32.9212L19.8955 34.11ZM15.2055 40.06L16.4293 41.6419L16.5961 41.5129L16.7323 41.3519L15.2055 40.06ZM11.4955 42.93L10.2718 41.3481L9.49551 41.9486V42.93H11.4955ZM11.4955 43.28H9.49551V45.7063L11.8773 45.2432L11.4955 43.28ZM16.5355 42.3V40.3H16.3429L16.1538 40.3368L16.5355 42.3ZM29.9755 42.3H31.9755V40.3H29.9755V42.3ZM29.9755 50V52H31.9755V50H29.9755ZM0.50551 50H-1.49449V52H0.50551V50ZM0.50551 45.31L-0.937264 43.9249L-1.49449 44.5054V45.31H0.50551ZM4.28551 41.25L5.76539 42.5953L5.77537 42.5844L5.78519 42.5732L4.28551 41.25ZM8.48551 36.28L6.93577 35.0157L6.932 35.0204L8.48551 36.28ZM12.6855 30.82L11.0663 29.6461L12.6855 30.82ZM16.3255 25.22L18.0593 26.2169L18.0646 26.2078L18.0698 26.1985L16.3255 25.22ZM18.8455 19.69L16.9688 18.9986L16.9607 19.0205L16.9532 19.0426L18.8455 19.69ZM18.1455 9.96L16.623 11.2569L16.6489 11.2873L16.6759 11.3166L18.1455 9.96ZM8.34551 9.05L9.07856 10.9108L9.09283 10.9052L9.10701 10.8994L8.34551 9.05ZM4.42551 11.43L2.68438 12.4141L3.91985 14.5999L5.77405 12.907L4.42551 11.43ZM0.785511 4.99L-0.483122 3.44385L-1.78295 4.51037L-0.955615 5.97411L0.785511 4.99ZM6.94551 1.42L7.66857 3.28472L7.67845 3.28089L7.68829 3.27695L6.94551 1.42ZM20.6655 0.859998L20.0331 2.75736L20.0331 2.75737L20.6655 0.859998ZM25.0055 3.31L26.3307 1.812L26.3307 1.812L25.0055 3.31ZM27.8755 7.37L26.0372 8.15784L26.0414 8.16758L26.0457 8.17728L27.8755 7.37ZM26.9255 12.97C26.9255 15.0966 26.5302 17.268 25.717 19.4936L29.474 20.8664C30.4342 18.2386 30.9255 15.6034 30.9255 12.97H26.9255ZM25.7055 19.5258C24.9096 21.8252 23.8676 24.0887 22.5754 26.3166L26.0356 28.3234C27.4501 25.8847 28.6015 23.3881 29.4855 20.8342L25.7055 19.5258ZM22.5605 26.3428C21.297 28.599 19.8743 30.7899 18.2914 32.9155L21.4996 35.3045C23.1834 33.0434 24.7007 30.7076 26.0505 28.2972L22.5605 26.3428ZM18.2872 32.9212C16.7235 35.0367 15.1873 36.9853 13.6787 38.7681L16.7323 41.3519C18.3037 39.4947 19.8942 37.4766 21.5039 35.2988L18.2872 32.9212ZM13.9818 38.4781L10.2718 41.3481L12.7193 44.5119L16.4293 41.6419L13.9818 38.4781ZM9.49551 42.93V43.28H13.4955V42.93H9.49551ZM11.8773 45.2432L16.9172 44.2632L16.1538 40.3368L11.1138 41.3168L11.8773 45.2432ZM16.5355 44.3H29.9755V40.3H16.5355V44.3ZM27.9755 42.3V50H31.9755V42.3H27.9755ZM29.9755 48H0.50551V52H29.9755V48ZM2.50551 50V45.31H-1.49449V50H2.50551ZM1.94829 46.6951C3.08378 45.5123 4.35645 44.1452 5.76539 42.5953L2.80563 39.9047C1.41457 41.4348 0.167236 42.7744 -0.937264 43.9249L1.94829 46.6951ZM5.78519 42.5732C7.20447 40.9647 8.62239 39.2868 10.039 37.5396L6.932 35.0204C5.54863 36.7266 4.16655 38.3619 2.78584 39.9268L5.78519 42.5732ZM10.0352 37.5443C11.5061 35.7413 12.9293 33.8911 14.3047 31.9939L11.0663 29.6461C9.73509 31.4822 8.35825 33.2721 6.93578 35.0157L10.0352 37.5443ZM14.3047 31.9939C15.6965 30.0743 16.9486 28.1487 18.0593 26.2169L14.5917 24.2231C13.5558 26.0246 12.3812 27.8324 11.0663 29.6461L14.3047 31.9939ZM18.0698 26.1985C19.1927 24.1969 20.086 22.2428 20.7378 20.3374L16.9532 19.0426C16.3917 20.6839 15.605 22.4165 14.5812 24.2415L18.0698 26.1985ZM20.7222 20.3814C21.4419 18.4279 21.8255 16.5129 21.8255 14.65H17.8255C17.8255 15.9604 17.5558 17.4054 16.9688 18.9986L20.7222 20.3814ZM21.8255 14.65C21.8255 12.3192 21.1299 10.2445 19.6151 8.60344L16.6759 11.3166C17.4011 12.1022 17.8255 13.1541 17.8255 14.65H21.8255ZM19.668 8.66307C18.0713 6.78872 15.6669 6.07 12.9655 6.07V10.07C15.0241 10.07 16.073 10.6113 16.623 11.2569L19.668 8.66307ZM12.9655 6.07C11.1749 6.07 9.37656 6.46253 7.58401 7.20064L9.10701 10.8994C10.4878 10.3308 11.7694 10.07 12.9655 10.07V6.07ZM7.61246 7.18918C5.87679 7.87293 4.35354 8.78746 3.07697 9.95303L5.77405 12.907C6.64415 12.1125 7.73423 11.4404 9.07856 10.9108L7.61246 7.18918ZM6.16664 10.4459L2.52664 4.00589L-0.955615 5.97411L2.68438 12.4141L6.16664 10.4459ZM2.05414 6.53615C3.70355 5.18279 5.57117 4.098 7.66857 3.28472L6.22246 -0.444723C3.74652 0.515333 1.50747 1.81055 -0.483122 3.44385L2.05414 6.53615ZM7.68829 3.27695C9.73544 2.45809 12.2033 2.02 15.1355 2.02V-1.98C11.8144 -1.98 8.82225 -1.48476 6.20273 -0.436953L7.68829 3.27695ZM15.1355 2.02C16.9554 2.02 18.5821 2.27372 20.0331 2.75736L21.298 -1.03737C19.3889 -1.67373 17.3289 -1.98 15.1355 -1.98V2.02ZM20.0331 2.75737C21.4816 3.24021 22.6868 3.92906 23.6804 4.80799L26.3307 1.812C24.8976 0.544266 23.2094 -0.400217 21.298 -1.03737L20.0331 2.75737ZM23.6804 4.80799C24.6515 5.66708 25.4422 6.76956 26.0372 8.15784L29.7138 6.58216C28.9088 4.70377 27.7862 3.09958 26.3307 1.812L23.6804 4.80799ZM26.0457 8.17728C26.6101 9.45673 26.9255 11.037 26.9255 12.97H30.9255C30.9255 10.6096 30.5409 8.4566 29.7053 6.56272L26.0457 8.17728ZM47.5023 6.32L49.1347 7.47554L49.1408 7.46692L47.5023 6.32ZM73.1223 6.25L71.4553 7.35509L71.4611 7.36375L73.1223 6.25ZM72.7723 44.68L71.1424 43.521L71.1381 43.527L71.1338 43.5331L72.7723 44.68ZM47.2223 44.4L45.5233 45.4552L45.5283 45.4632L47.2223 44.4ZM54.0123 38.66L52.1478 39.3835L52.1543 39.4005L52.1612 39.4173L54.0123 38.66ZM66.1923 39.01L64.3746 38.1757L64.369 38.188L64.3634 38.2005L66.1923 39.01ZM66.3323 12.34L64.4715 13.073H64.4715L66.3323 12.34ZM54.0123 12.06L52.1786 11.2615L52.1732 11.274L52.1679 11.2865L54.0123 12.06ZM45.0923 25.43C45.0923 17.0013 46.5483 11.1294 49.1347 7.47552L45.8699 5.16447C42.5764 9.81725 41.0923 16.6853 41.0923 25.43H45.0923ZM49.1408 7.46692C51.675 3.84657 55.2614 2.02 60.1723 2.02V-1.98C54.0699 -1.98 49.2096 0.393429 45.8638 5.17307L49.1408 7.46692ZM60.1723 2.02C65.5213 2.02 69.1435 3.86773 71.4553 7.35507L74.7893 5.14493C71.5945 0.325595 66.5833 -1.98 60.1723 -1.98V2.02ZM71.4611 7.36375C73.8822 10.9749 75.2523 16.8832 75.2523 25.43H79.2523C79.2523 16.6168 77.8691 9.73846 74.7835 5.13625L71.4611 7.36375ZM75.2523 25.43C75.2523 33.9011 73.7744 39.8197 71.1424 43.521L74.4022 45.839C77.7435 41.1403 79.2523 34.2255 79.2523 25.43H75.2523ZM71.1338 43.5331C68.5996 47.1534 65.0133 48.98 60.1023 48.98V52.98C66.2047 52.98 71.065 50.6066 74.4108 45.8269L71.1338 43.5331ZM60.1023 48.98C54.8542 48.98 51.2521 47.0583 48.9163 43.3368L45.5283 45.4632C48.6992 50.515 53.6838 52.98 60.1023 52.98V48.98ZM48.9213 43.3448C46.4472 39.3611 45.0923 33.466 45.0923 25.43H41.0923C41.0923 33.8206 42.4907 40.5722 45.5233 45.4552L48.9213 43.3448ZM50.1923 25.43C50.1923 31.2227 50.8036 35.9197 52.1478 39.3835L55.8768 37.9365C54.7944 35.147 54.1923 31.024 54.1923 25.43H50.1923ZM52.1612 39.4173C52.8884 41.1947 53.9076 42.6828 55.2973 43.725C56.7079 44.783 58.3659 45.28 60.1723 45.28V41.28C59.132 41.28 58.34 41.007 57.6973 40.525C57.0336 40.0272 56.3963 39.2053 55.8634 37.9027L52.1612 39.4173ZM60.1723 45.28C61.912 45.28 63.5182 44.8235 64.8994 43.8438C66.265 42.8752 67.2835 41.486 68.0212 39.8195L64.3634 38.2005C63.8411 39.3807 63.2263 40.1265 62.5852 40.5812C61.9598 41.0248 61.1859 41.28 60.1723 41.28V45.28ZM68.01 39.8443C69.5051 36.5872 70.1523 31.6966 70.1523 25.43H66.1523C66.1523 31.5768 65.4929 35.7395 64.3746 38.1757L68.01 39.8443ZM70.1523 25.43C70.1523 19.6842 69.5412 15.029 68.1931 11.6069L64.4715 13.073C65.5501 15.811 66.1523 19.8825 66.1523 25.43H70.1523ZM68.1931 11.6069C67.4873 9.81527 66.4685 8.31586 65.0561 7.26852C63.6269 6.20864 61.9399 5.72 60.1023 5.72V9.72C61.2047 9.72 62.0261 10.0014 62.6735 10.4815C63.3378 10.9741 63.964 11.7847 64.4715 13.073L68.1931 11.6069ZM60.1023 5.72C58.3397 5.72 56.7141 6.18216 55.3191 7.17627C53.9396 8.15934 52.9155 9.56951 52.1786 11.2615L55.846 12.8585C56.3692 11.6571 56.99 10.8973 57.6405 10.4337C58.2756 9.98117 59.0649 9.72 60.1023 9.72V5.72ZM52.1679 11.2865C50.7958 14.5584 50.1923 19.3434 50.1923 25.43H54.1923C54.1923 19.4766 54.8021 15.3482 55.8567 12.8334L52.1679 11.2865Z" fill="white"/>
</svg>
