<svg width="70" height="69" viewBox="0 0 70 69" fill="none" xmlns="http://www.w3.org/2000/svg">
<g clip-path="url(#clip0_3_8396)">
<path d="M35 68.9264C15.7004 68.9264 0 53.4668 0 34.4632C0 15.4596 15.7004 0 35 0C54.2996 0 70 15.4596 70 34.4632C70 53.4668 54.2996 68.9264 35 68.9264ZM35 2.87193C17.3104 2.87193 2.91667 17.0449 2.91667 34.4632C2.91667 51.8815 17.3104 66.0545 35 66.0545C52.6896 66.0545 67.0833 51.8815 67.0833 34.4632C67.0833 17.0449 52.6896 2.87193 35 2.87193Z" fill="#2D2D2D"/>
<path d="M51.041 51.6954C50.6677 51.6954 50.2943 51.5546 50.0085 51.276L33.9668 35.4804C33.6956 35.2105 33.541 34.8457 33.541 34.4637V12.9242C33.541 12.1316 34.1943 11.4883 34.9993 11.4883C35.8043 11.4883 36.4577 12.1316 36.4577 12.9242V33.8693L52.0735 49.2456C52.6423 49.8056 52.6423 50.716 52.0735 51.276C51.7877 51.5546 51.4143 51.6954 51.041 51.6954Z" fill="#2D2D2D"/>
</g>
<defs>
<clipPath id="clip0_3_8396">
<rect width="70" height="68.9264" fill="white"/>
</clipPath>
</defs>
</svg>
