<svg width="70" height="70" viewBox="0 0 70 70" fill="none" xmlns="http://www.w3.org/2000/svg">
<path d="M5.89465 44.5446L8.22798 37.5446C8.38665 37.0683 8.83203 36.747 9.33398 36.7466H15.1673C15.8116 36.7466 16.334 37.269 16.334 37.9132V43.7466C16.3341 44.327 15.9076 44.8192 15.333 44.9016L7.16632 46.0682C7.11148 46.0761 7.05607 46.08 7.00065 46.0799C6.35636 46.0794 5.83442 45.5566 5.83486 44.9123C5.83501 44.7874 5.85513 44.6631 5.89465 44.5446ZM14.0007 42.7351V39.0799H10.1752L8.70398 43.4911L14.0007 42.7351Z" fill="#2D2D2D"/>
<path d="M2.33334 21.5797C1.83138 21.5793 1.386 21.258 1.22733 20.7817L0.0606689 17.2817C0.0207062 17.1629 0.000297546 17.0385 0 16.913V12.2464C0 11.6021 0.522377 11.0797 1.16667 11.0797H53.4473C55.3774 7.73371 59.6546 6.58586 63.0006 8.51596C65.1675 9.7659 66.5019 12.0781 66.5 14.5797V41.413H68.8333C69.4776 41.413 70 41.9354 70 42.5797V56.5797C70 57.224 69.4776 57.7464 68.8333 57.7464H67.6667V60.0797H68.8333V62.413H64.1667V60.0797H65.3333V57.7464H60.55C59.9057 60.9029 56.8244 62.9395 53.6678 62.2952C50.5113 61.6509 48.4747 58.5696 49.119 55.413C49.7633 52.2565 52.8446 50.2199 56.0012 50.8642C58.2921 51.3319 60.0823 53.1221 60.55 55.413H63V48.413H37.8163L35 51.2294V55.413H37.45C38.0943 52.2565 41.1756 50.2199 44.3322 50.8642C47.4887 51.5085 49.5253 54.5898 48.881 57.7464C48.2367 60.9029 45.1554 62.9395 41.9988 62.2952C39.7079 61.8275 37.9177 60.0373 37.45 57.7464H23.3333V60.0797H24.5V62.413H19.8333V60.0797H21V57.7464H16.2167C15.5756 60.9037 12.4965 62.9433 9.33917 62.3022C7.04361 61.8361 5.24942 60.0419 4.78333 57.7464H1.16667C0.522377 57.7464 0 57.224 0 56.5797V44.913C0 44.7644 0.0281448 44.6171 0.0828323 44.479L4.7495 32.8124C4.92698 32.3695 5.35617 32.0794 5.83334 32.0797H19.8333C20.4776 32.0797 21 32.6021 21 33.2464V41.413H40.8333V34.2544C40.8379 30.4779 43.8982 27.4176 47.6747 27.413H52.5V25.9069L30.135 18.0797H9.00667L8.106 20.7817C7.94734 21.258 7.50196 21.5793 7 21.5797H5.83334V23.913C5.83334 24.5573 5.31096 25.0797 4.66667 25.0797C4.02238 25.0797 3.5 25.6021 3.5 26.2464C3.5 26.8907 4.02238 27.413 4.66667 27.413C5.31096 27.413 5.83334 26.8907 5.83334 26.2464H8.16667C8.16623 28.1794 6.59896 29.7461 4.66594 29.7456C2.73292 29.7452 1.16623 28.1779 1.16667 26.2449C1.16696 24.7619 2.10175 23.4401 3.5 22.9457V21.5796H2.33334V21.5797ZM54.8333 53.0797C52.9003 53.0797 51.3333 54.6467 51.3333 56.5797C51.3333 58.5127 52.9003 60.0797 54.8333 60.0797C56.7664 60.0797 58.3333 58.5127 58.3333 56.5797C58.3333 54.6467 56.7664 53.0797 54.8333 53.0797ZM43.1667 60.0797C45.0997 60.0797 46.6667 58.5127 46.6667 56.5797C46.6667 54.6467 45.0997 53.0797 43.1667 53.0797C41.2336 53.0797 39.6667 54.6467 39.6667 56.5797C39.6667 58.5127 41.2336 60.0797 43.1667 60.0797ZM10.5 60.0797C12.433 60.0797 14 58.5127 14 56.5797C14 54.6467 12.433 53.0797 10.5 53.0797C8.56698 53.0797 7 54.6467 7 56.5797C7 58.5127 8.56698 60.0797 10.5 60.0797ZM18.6667 34.413H6.62317L2.33334 45.137V49.5797H4.66667V51.913H2.33334V55.413H4.78333C5.42442 52.2558 8.50354 50.2161 11.6608 50.8572C13.9564 51.3233 15.7506 53.1175 16.2167 55.413H18.6667V34.413ZM64.1667 14.5797C64.1667 12.0024 62.0773 9.91304 59.5 9.91304C56.9227 9.91304 54.8333 12.0024 54.8333 14.5797V41.413H64.1667V14.5797ZM65.3333 55.413H67.6667V48.413H65.3333V55.413ZM21 55.413H23.3333V48.413H21V55.413ZM21 43.7464V46.0797H24.5C25.1443 46.0797 25.6667 46.6021 25.6667 47.2464V55.413H32.6667V50.7464C32.6667 50.4369 32.7897 50.1403 33.0085 49.9215L36.5085 46.4215C36.7272 46.2028 37.0239 46.0797 37.3333 46.0797H67.6667V43.7464H21ZM47.8333 29.7464H47.6747C45.186 29.749 43.1693 31.7657 43.1667 34.2544V35.5797H47.8333V29.7464ZM50.1667 29.7464V36.7464C50.1667 37.3907 49.6443 37.913 49 37.913H43.1667V41.413H52.5V29.7464H50.1667ZM52.5 23.4359V18.0797H37.198L52.5 23.4359ZM16.3333 15.7464H52.5V13.413H16.3333V15.7464ZM9.33334 15.7464H14V13.413H9.33334V15.7464ZM6.15884 19.2464L7 16.724V13.413H2.33334V16.724L3.1745 19.2464H6.15884Z" fill="#2D2D2D"/>
</svg>
