<svg width="70" height="70" viewBox="0 0 70 70" fill="none" xmlns="http://www.w3.org/2000/svg">
<g clip-path="url(#clip0_3_8406)">
<path d="M0.221358 6.4213L4.8898 14.5906C5.04727 14.8666 5.31084 15.0664 5.61906 15.1437L9.97448 16.2325L24.9126 31.1707L26.5632 29.5206L11.3912 14.3491C11.2419 14.1993 11.0547 14.0932 10.8497 14.0418L6.66471 12.9919L2.69001 6.03243L6.09772 2.62471L13.0601 6.60326L14.1105 10.7882C14.1614 10.9937 14.268 11.1814 14.4173 11.3308L29.5892 26.5027L31.2393 24.8521L16.3012 9.91399L15.2123 5.56097C15.135 5.25227 14.9353 4.98822 14.6592 4.83027L6.48948 0.162308C6.03387 -0.0969433 5.46063 -0.0201282 5.08904 0.350025L0.421078 5.01847C0.0456435 5.38766 -0.0359725 5.96185 0.221358 6.4213Z" fill="#2D2D2D"/>
<path d="M48.7425 23.0007L23.0676 48.6761L21.417 47.0255L47.0925 21.3506L48.7425 23.0007Z" fill="#2D2D2D"/>
<path d="M18.5731 49.5846C18.3619 49.2332 17.9826 49.0186 17.5726 49.0186H10.5704C10.1609 49.0186 9.78114 49.2332 9.57038 49.5846L6.06906 55.4197C5.84677 55.7894 5.84677 56.2517 6.06906 56.6218L9.57038 62.4569C9.78114 62.8079 10.1609 63.023 10.5704 63.023H17.5726C17.9826 63.023 18.3619 62.8079 18.5731 62.4569L22.0739 56.6218C22.2962 56.2517 22.2962 55.7894 22.0739 55.4197L18.5731 49.5846ZM16.9125 60.6887H11.231L8.43016 56.0208L11.231 51.3523H16.9125L19.7133 56.0208L16.9125 60.6887Z" fill="#2D2D2D"/>
<path d="M56.0848 28.0115C63.7927 28.0374 70.0628 21.8097 70.0887 14.1018C70.0925 12.9284 69.9485 11.7599 69.66 10.6225C69.5044 9.99697 68.8712 9.61625 68.2456 9.7718C68.0401 9.82317 67.8529 9.92927 67.7031 10.0786L60.4383 17.3386L54.6743 15.4177L52.752 9.65514L60.0168 2.38892C60.4724 1.93283 60.4719 1.19397 60.0158 0.738357C59.8656 0.588088 59.6764 0.481507 59.4695 0.430617C51.9944 -1.46239 44.4008 3.06249 42.5077 10.5371C42.2202 11.6711 42.0766 12.8367 42.0805 14.0067C42.0833 14.9256 42.1779 15.8416 42.3642 16.7413L16.8054 42.2996C15.9057 42.1138 14.9897 42.0192 14.0712 42.0159C6.33644 42.0159 0.0664062 48.2859 0.0664062 56.0207C0.0664062 63.755 6.33644 70.025 14.0712 70.025C21.8056 70.025 28.0756 63.755 28.0756 56.0207C28.0727 55.1018 27.9777 54.1858 27.7919 53.2861L33.9107 47.1673L36.5867 49.8433C37.0428 50.2989 37.7812 50.2989 38.2373 49.8433L38.8206 49.2595C39.3324 48.7511 40.1596 48.7511 40.6714 49.2595C41.1827 49.7694 41.1836 50.5971 40.6738 51.1084C40.6733 51.1088 40.6723 51.1098 40.6714 51.1108L40.0881 51.6941C39.6325 52.1497 39.6325 52.8885 40.0881 53.3442L54.0098 67.2659C57.6715 70.9612 63.6353 70.9881 67.3306 67.3264C71.0254 63.6647 71.0523 57.7005 67.3906 54.0057C67.3709 53.9856 67.3507 53.9654 67.3306 53.9452L53.4088 40.0239C52.9532 39.5683 52.2143 39.5683 51.7587 40.0239L51.1754 40.6073C50.6631 41.1162 49.8364 41.1162 49.3241 40.6073C48.8133 40.0974 48.8119 39.2697 49.3217 38.7589C49.3227 38.7579 49.3236 38.7575 49.3241 38.7565L49.9079 38.1727C50.3635 37.7171 50.3635 36.9782 49.9079 36.5226L47.2319 33.8466L53.3507 27.7278C54.2504 27.9136 55.1664 28.0086 56.0848 28.0115ZM60.6702 67.6913C59.8224 67.6898 58.9817 67.5367 58.1881 67.2385L67.3027 58.1235C68.6782 61.7823 66.8274 65.8631 63.1686 67.2385C62.3702 67.5386 61.5238 67.6922 60.6702 67.6913ZM47.4489 37.3594C46.1565 38.901 46.3591 41.1987 47.9006 42.4907C49.2555 43.6261 51.2301 43.6251 52.5835 42.4873L65.6805 55.5958C65.8226 55.7384 65.9556 55.8886 66.0842 56.0413L56.1059 66.0196C55.9528 65.8914 55.8025 65.7584 55.6599 65.6158L42.5529 52.5078C43.8453 50.9662 43.6427 48.6685 42.1011 47.3766C40.7463 46.2407 38.7712 46.2421 37.4178 47.3795L35.5507 45.5124L45.5813 35.4967L47.4489 37.3594ZM52.1615 25.6216L25.6867 52.0911C25.3962 52.3811 25.2795 52.8021 25.3784 53.2001C26.9796 59.4879 23.1801 65.8832 16.8918 67.4839C10.604 69.085 4.20866 65.2855 2.60755 58.9973C1.00691 52.7095 4.80638 46.3141 11.0947 44.713C12.9968 44.2291 14.9897 44.2291 16.8918 44.713C17.2898 44.8105 17.7099 44.6938 18.0008 44.4053L44.4694 17.9353C44.7594 17.6453 44.876 17.2243 44.7762 16.8268C43.1861 10.6124 46.9347 4.28577 53.149 2.69522C54.3234 2.39516 55.538 2.27994 56.7478 2.35531L50.5916 8.51396C50.279 8.82602 50.1696 9.28835 50.3093 9.70747L52.643 16.7101C52.7597 17.0582 53.0333 17.3318 53.3819 17.4475L60.3845 19.7818C60.8032 19.9215 61.2655 19.8125 61.5781 19.5004L67.7343 13.3442C67.7482 13.5669 67.7554 13.7873 67.7554 14.0067C67.7881 20.4193 62.6165 25.6442 56.2039 25.6773C55.2125 25.6821 54.2245 25.5602 53.2643 25.3144C52.8663 25.215 52.4452 25.3312 52.1552 25.6211H52.1615V25.6216Z" fill="#2D2D2D"/>
<path d="M60.4134 58.6965L58.7629 60.3471L47.0928 48.6769L48.7429 47.0264L60.4134 58.6965Z" fill="#2D2D2D"/>
</g>
<defs>
<clipPath id="clip0_3_8406">
<rect width="70" height="70" fill="white"/>
</clipPath>
</defs>
</svg>
