<svg width="70" height="70" viewBox="0 0 70 70" fill="none" xmlns="http://www.w3.org/2000/svg">
<path d="M51.7761 45.3518L49.0346 44.7645L49.0248 44.7612L42.4491 43.3546C42.4935 43.0325 42.5169 42.7079 42.5191 42.3828V39.3291C44.4927 38.0684 46.1172 36.3313 47.243 34.2779C48.3688 32.2245 48.9597 29.9207 48.9613 27.5789V25.0906H50.4636C50.5893 25.0907 50.7138 25.066 50.8299 25.0179C50.9461 24.9699 51.0516 24.8994 51.1405 24.8105C51.2294 24.7216 51.2999 24.6161 51.3479 24.4999C51.396 24.3838 51.4207 24.2593 51.4206 24.1336V20.8523C51.4207 20.7266 51.396 20.6022 51.3479 20.486C51.2999 20.3699 51.2294 20.2643 51.1405 20.1755C51.0516 20.0866 50.9461 20.0161 50.8299 19.968C50.7138 19.9199 50.5893 19.8952 50.4636 19.8953H49.7729C49.7331 16.6051 48.5935 13.4229 46.5357 10.8554C44.4779 8.28788 41.6201 6.48273 38.4176 5.72742V3.55469C38.4176 3.42899 38.3929 3.30451 38.3449 3.18836C38.2968 3.07222 38.2263 2.96669 38.1374 2.8778C38.0485 2.78892 37.943 2.71843 37.8269 2.67036C37.7107 2.62229 37.5862 2.59758 37.4605 2.59766H32.5387C32.2848 2.59766 32.0414 2.69849 31.8619 2.87796C31.6825 3.05744 31.5816 3.30087 31.5816 3.55469V5.72742C28.3791 6.48273 25.5214 8.28788 23.4635 10.8554C21.4057 13.4229 20.2662 16.6051 20.2263 19.8953H19.5356C19.4099 19.8952 19.2854 19.9199 19.1693 19.968C19.0532 20.0161 18.9476 20.0866 18.8587 20.1755C18.7699 20.2643 18.6994 20.3699 18.6513 20.486C18.6032 20.6022 18.5785 20.7266 18.5786 20.8523V24.1336C18.5785 24.2593 18.6032 24.3838 18.6513 24.4999C18.6994 24.6161 18.7699 24.7216 18.8587 24.8105C18.9476 24.8994 19.0532 24.9699 19.1693 25.0179C19.2854 25.066 19.4099 25.0907 19.5356 25.0906H21.0379V27.5789C21.0395 29.9207 21.6304 32.2245 22.7562 34.2779C23.882 36.3313 25.5066 38.0684 27.4801 39.3291V42.3828C27.4823 42.7079 27.5057 43.0325 27.5501 43.3546L20.9745 44.7612H20.9673L18.2242 45.3485C16.543 45.7135 15.0367 46.6412 13.9543 47.9784C12.8719 49.3155 12.2783 50.982 12.2715 52.7023V66.4453C12.2715 66.6991 12.3723 66.9426 12.5518 67.122C12.7313 67.3015 12.9747 67.4023 13.2285 67.4023H56.7707C57.0245 67.4023 57.2679 67.3015 57.4474 67.122C57.6269 66.9426 57.7277 66.6991 57.7277 66.4453V52.7023C57.7203 50.9827 57.1265 49.317 56.0444 47.9806C54.9623 46.6441 53.4566 45.7167 51.7761 45.3518ZM47.8588 19.8953H43.3395V14.2898C43.3395 14.036 43.2386 13.7926 43.0591 13.6131C42.8797 13.4336 42.6362 13.3328 42.3824 13.3328C42.1286 13.3328 41.8852 13.4336 41.7057 13.6131C41.5262 13.7926 41.4254 14.036 41.4254 14.2898V19.8953H38.4176V7.68742C41.1019 8.42389 43.4742 10.0127 45.177 12.2146C46.8799 14.4165 47.8211 17.1121 47.8588 19.8953ZM33.4957 4.51172H36.5035V19.8953H33.4957V4.51172ZM31.5816 7.68797V19.8953H28.5738V14.2898C28.5738 14.036 28.473 13.7926 28.2935 13.6131C28.114 13.4336 27.8706 13.3328 27.6168 13.3328C27.363 13.3328 27.1196 13.4336 26.9401 13.6131C26.7606 13.7926 26.6598 14.036 26.6598 14.2898V19.8953H22.1404C22.1781 17.1121 23.1193 14.4165 24.8221 12.2148C26.525 10.013 28.8973 8.42425 31.5816 7.68797ZM20.4927 21.8094H49.5066V23.1766H20.4927V21.8094ZM22.9536 27.5789V25.0906H47.0473V27.5789C47.0473 30.7741 45.778 33.8385 43.5186 36.0979C41.2592 38.3573 38.1948 39.6266 34.9996 39.6266C31.8044 39.6266 28.74 38.3573 26.4806 36.0979C24.2213 33.8385 22.952 30.7741 22.952 27.5789H22.9536ZM34.9996 41.5352C36.9295 41.537 38.8386 41.1365 40.6051 40.3594V42.3828C40.6051 43.8695 40.0145 45.2952 38.9633 46.3465C37.912 47.3977 36.4863 47.9883 34.9996 47.9883C33.5129 47.9883 32.0872 47.3977 31.0359 46.3465C29.9847 45.2952 29.3941 43.8695 29.3941 42.3828V40.3594C31.1606 41.1365 33.0697 41.537 34.9996 41.5352ZM14.1855 52.7023C14.1914 51.4202 14.6345 50.1785 15.4416 49.1822C16.2487 48.186 17.3715 47.4949 18.6245 47.2232L20.2176 46.882V65.4883H14.1855V52.7023ZM22.1316 46.4723L28.0379 45.208C28.5407 46.4414 29.3616 47.5194 30.4168 48.3321C31.472 49.1449 32.7239 49.6633 34.0448 49.8345V65.4883H22.1316V46.4723ZM35.9566 65.4883V49.8345C37.2776 49.6634 38.5295 49.145 39.5847 48.3323C40.64 47.5195 41.4608 46.4414 41.9635 45.208L47.8698 46.4723V65.4883H35.9566ZM55.8137 65.4883H49.7816V46.8825L51.3752 47.2237C52.6281 47.4956 53.7507 48.1866 54.5577 49.1827C55.3647 50.1788 55.8077 51.4204 55.8137 52.7023V65.4883Z" fill="#2D2D2D"/>
<path d="M53.4902 55.813C53.3645 55.8129 53.2401 55.8376 53.1239 55.8857C53.0078 55.9338 52.9022 56.0043 52.8134 56.0931C52.7245 56.182 52.654 56.2875 52.6059 56.4037C52.5578 56.5198 52.5331 56.6443 52.5332 56.77V60.1907C52.5332 60.4445 52.634 60.688 52.8135 60.8674C52.993 61.0469 53.2364 61.1478 53.4902 61.1478C53.7441 61.1478 53.9875 61.0469 54.167 60.8674C54.3464 60.688 54.4473 60.4445 54.4473 60.1907V56.77C54.4473 56.5162 54.3464 56.2728 54.167 56.0933C53.9875 55.9138 53.7441 55.813 53.4902 55.813Z" fill="#2D2D2D"/>
<path d="M30.5488 53.6372H25.627C25.3731 53.6372 25.1297 53.738 24.9502 53.9175C24.7708 54.097 24.6699 54.3404 24.6699 54.5942C24.6699 54.8481 24.7708 55.0915 24.9502 55.271C25.1297 55.4504 25.3731 55.5513 25.627 55.5513H30.5488C30.8026 55.5513 31.0461 55.4504 31.2256 55.271C31.405 55.0915 31.5059 54.8481 31.5059 54.5942C31.5059 54.3404 31.405 54.097 31.2256 53.9175C31.0461 53.738 30.8026 53.6372 30.5488 53.6372Z" fill="#2D2D2D"/>
</svg>
