<svg width="1600" height="43" viewBox="0 0 1600 43" fill="none" xmlns="http://www.w3.org/2000/svg">
<mask id="mask0_3_8365" style="mask-type:alpha" maskUnits="userSpaceOnUse" x="-208" y="0" width="1881" height="43">
<path d="M1672 43L1672 7.24792e-05L-208 0.00014626L-208 43.0001L1672 43Z" fill="black" fill-opacity="0.25"/>
</mask>
<g mask="url(#mask0_3_8365)">
<path fill-rule="evenodd" clip-rule="evenodd" d="M329.331 -400.891V-343.998H417.158L964.354 286.955V288.479L1101.27 446.352H964.109V388.322H876.443L329.247 -242.631V-242.833L192.171 -400.891H329.331ZM-168.455 331.245L-305.615 173.09V331.245H-168.455ZM124.473 331.245L-305.615 -164.491V38.0577L-51.1876 331.43H124.473V331.245ZM-100.597 -400.891L329.247 94.7488V94.95L583.675 388.322H759.336V388.137L329.491 -107.317V-107.518L75.0637 -400.891H-100.597ZM-305.615 -400.891V-299.524L241.581 331.43H329.247V388.137H466.407L329.491 230.264V230.063L-217.705 -400.891H-305.615ZM964.193 -285.783V-343.998H827.033L964.109 -185.94V-184.416L1511.31 446.537H1599.22V345.17L1052.02 -285.783H964.193ZM964.354 -49.1022L1394.2 446.352V446.537H1218.54L964.109 153.165V151.641L534.265 -343.998H709.926L964.354 -50.6262V-49.1022ZM1599.06 -127.629V-285.783H1461.9L1599.06 -127.629ZM1599.22 210.138L1169.13 -285.783H1344.79L1599.22 7.58902V210.138Z" fill="#595959"/>
</g>
</svg>
