<svg width="1600" height="47" viewBox="0 0 1600 47" fill="none" xmlns="http://www.w3.org/2000/svg">
<mask id="mask0_3_8359" style="mask-type:alpha" maskUnits="userSpaceOnUse" x="-186" y="0" width="1881" height="47">
<path d="M1694 47L1694 -0.000144958L-186 -6.43139e-05L-186 47.0001L1694 47Z" fill="black" fill-opacity="0.25"/>
</mask>
<g mask="url(#mask0_3_8359)">
<path fill-rule="evenodd" clip-rule="evenodd" d="M351.331 -438.185V-376H439.158L986.354 313.65V315.316L1123.27 487.876H986.109V424.447H898.443L351.247 -265.203V-265.423L214.171 -438.185H351.331ZM-146.455 362.06L-283.615 189.193V362.06H-146.455ZM146.473 362.06L-283.615 -179.794V41.5981L-29.1876 362.262H146.473V362.06ZM-78.5972 -438.185L351.247 103.563V103.783L605.675 424.447H781.336V424.245L351.491 -117.301V-117.521L97.0637 -438.185H-78.5972ZM-283.615 -438.185V-327.388L263.581 362.262H351.247V424.245H488.407L351.491 251.685V251.465L-195.705 -438.185H-283.615ZM986.193 -312.369V-376H849.033L986.109 -203.238V-201.572L1533.31 488.078H1621.22V377.281L1074.02 -312.369H986.193ZM986.354 -53.6704L1416.2 487.876V488.078H1240.54L986.109 167.414V165.748L556.265 -376H731.926L986.354 -55.3361V-53.6704ZM1621.06 -139.502V-312.369H1483.9L1621.06 -139.502ZM1621.22 229.686L1191.13 -312.369H1366.79L1621.22 8.29474V229.686Z" fill="#595959"/>
</g>
</svg>
