<svg width="123" height="57" viewBox="0 0 123 57" fill="none" xmlns="http://www.w3.org/2000/svg">
<rect y="53" width="123" height="4" fill="#C4C4C4"/>
<rect y="53" width="34" height="4" fill="#535554"/>
<rect x="84" y="1" width="38" height="38" stroke="#FF971D" stroke-width="2"/>
<path d="M98.3536 20.3536C98.5488 20.1583 98.5488 19.8417 98.3536 19.6464L95.1716 16.4645C94.9763 16.2692 94.6597 16.2692 94.4645 16.4645C94.2692 16.6597 94.2692 16.9763 94.4645 17.1716L97.2929 20L94.4645 22.8284C94.2692 23.0237 94.2692 23.3403 94.4645 23.5355C94.6597 23.7308 94.9763 23.7308 95.1716 23.5355L98.3536 20.3536ZM68 20.5L98 20.5L98 19.5L68 19.5L68 20.5Z" fill="#535554"/>
<path d="M30.6464 20.3536C30.4512 20.1583 30.4512 19.8417 30.6464 19.6464L33.8284 16.4645C34.0237 16.2692 34.3403 16.2692 34.5355 16.4645C34.7308 16.6597 34.7308 16.9763 34.5355 17.1716L31.7071 20L34.5355 22.8284C34.7308 23.0237 34.7308 23.3403 34.5355 23.5355C34.3403 23.7308 34.0237 23.7308 33.8284 23.5355L30.6464 20.3536ZM61 20.5L31 20.5L31 19.5L61 19.5L61 20.5Z" fill="#C4C4C4"/>
</svg>
