<svg width="370" height="90" viewBox="0 0 370 90" fill="none" xmlns="http://www.w3.org/2000/svg">
<mask id="mask0_9215_718" style="mask-type:alpha" maskUnits="userSpaceOnUse" x="0" y="0" width="370" height="90">
<rect width="370" height="90" fill="#FCD571"/>
</mask>
<g mask="url(#mask0_9215_718)">
<path d="M469.97 0V26.1316L444.703 0H469.97ZM378.268 120.969L353 94.8378V120.969H378.268ZM432.231 120.969L353 39.0599V72.5266L399.871 121H432.231V120.969ZM390.769 0L470 81.9401V48.4734L423.129 0H390.769ZM353 0V16.7487L453.805 121H470V104.251L369.195 0H353Z" fill="#E7E7E7"/>
<path d="M14 116.97L-12.1316 116.97L14 91.7027L14 116.97ZM-106.969 25.2677L-80.8378 -4.14549e-06L-106.969 -5.28774e-06L-106.969 25.2677ZM-106.969 79.2314L-25.0599 -1.70736e-06L-58.5267 -3.17024e-06L-107 46.8709L-107 79.2314L-106.969 79.2314ZM14 37.7686L-67.9401 117L-34.4734 117L14 70.1291L14 37.7686ZM14 0L-2.74867 -7.32108e-07L-107 100.805L-107 117L-90.2513 117L14 16.195L14 0Z" fill="#E7E7E7"/>
</g>
</svg>
